<?xml version="1.0" standalone="no"?>
<!DOCTYPE svg PUBLIC "-//W3C//DTD SVG 20010904//EN"
 "http://www.w3.org/TR/2001/REC-SVG-20010904/DTD/svg10.dtd">
<svg version="1.0" xmlns="http://www.w3.org/2000/svg"
 width="325.000000pt" height="325.000000pt" viewBox="0 0 325.000000 325.000000"
 preserveAspectRatio="xMidYMid meet">
<metadata>
Created by potrace 1.11, written by Peter Selinger 2001-2013
</metadata>
<g transform="translate(0.000000,325.000000) scale(0.100000,-0.100000)"
fill="#000000" stroke="none">
<path d="M1579 3176 c-2 -2 -35 -7 -74 -10 -38 -4 -77 -9 -85 -11 -8 -2 -31
-7 -50 -10 -192 -31 -460 -143 -635 -263 -105 -73 -214 -174 -303 -280 -136
-162 -265 -423 -308 -623 -40 -186 -52 -448 -28 -589 7 -41 16 -91 19 -110 18
-113 98 -328 160 -432 19 -33 35 -62 35 -64 0 -3 31 -47 69 -99 71 -96 182
-212 248 -262 21 -15 40 -31 43 -34 8 -9 159 -109 165 -109 3 0 22 -10 43 -23
138 -86 440 -177 647 -195 149 -12 433 -5 520 13 11 3 34 6 50 9 64 8 204 46
285 76 194 71 410 208 578 366 l54 50 -48 45 c-27 25 -78 74 -114 107 -63 60
-92 74 -105 51 -16 -25 -212 -172 -298 -224 -148 -88 -317 -151 -482 -180 -81
-14 -378 -13 -460 1 -392 68 -719 302 -898 641 -105 200 -148 389 -142 628 3
146 7 178 26 260 5 22 12 48 14 59 32 136 145 353 240 461 15 17 37 41 49 55
39 45 130 122 204 172 153 103 343 176 527 202 94 13 359 15 402 2 10 -2 34
-7 53 -10 176 -27 369 -108 547 -227 70 -48 192 -144 204 -162 8 -11 54 32
173 161 l87 94 -73 59 c-259 212 -505 328 -798 378 -36 6 -81 13 -100 17 -40
6 -435 16 -441 10z"/>
<path d="M1588 2795 c-2 -2 -21 -5 -43 -8 -99 -14 -125 -20 -210 -48 -191 -64
-328 -149 -470 -294 -160 -163 -261 -363 -310 -616 -14 -71 -14 -324 1 -410
42 -259 150 -468 339 -654 184 -182 397 -287 660 -326 69 -10 276 -13 325 -5
14 3 48 7 75 11 157 19 371 104 525 208 60 40 210 160 233 185 17 19 17 20
-13 46 l-32 26 -40 -32 c-204 -168 -374 -260 -583 -316 -168 -45 -412 -49
-587 -8 -433 100 -763 465 -822 909 -9 62 -9 251 -1 302 23 150 56 251 119
371 158 297 442 501 779 560 83 14 279 20 337 10 14 -3 43 -7 65 -11 201 -29
450 -148 649 -310 l55 -45 31 30 30 29 -67 57 c-216 180 -448 290 -693 328
-71 11 -343 19 -352 11z"/>
<path d="M1727 2634 c-1 -1 -36 -4 -77 -7 -284 -24 -550 -170 -720 -396 -298
-396 -267 -952 74 -1309 222 -233 541 -345 866 -306 139 17 348 100 460 183
274 205 425 513 415 846 -4 120 -8 150 -32 240 -98 361 -392 642 -758 724 -44
10 -222 30 -228 25z m-41 -297 l1 -197 -41 -1 c-94 -2 -290 2 -294 6 -14 14
136 250 213 334 42 46 64 58 99 56 21 -2 21 -6 22 -198z m180 184 c57 -32 271
-357 250 -378 -3 -4 -45 -6 -94 -5 -48 0 -121 1 -163 1 l-77 1 1 199 0 198 36
-4 c20 -3 41 -8 47 -12z m294 -89 c116 -63 212 -142 289 -237 50 -61 49 -61
-109 -57 l-110 3 -35 75 c-19 41 -63 120 -99 174 l-65 100 42 -17 c23 -9 62
-28 87 -41z m-748 11 c-42 -54 -103 -158 -137 -236 -26 -58 -34 -67 -57 -67
-144 -6 -223 -2 -223 10 0 20 102 130 171 186 66 52 227 142 257 143 16 1 14
-4 -11 -36z m-226 -402 l22 -1 -19 -70 c-10 -38 -21 -87 -24 -108 -3 -21 -7
-48 -10 -60 -2 -13 -5 -46 -6 -74 -2 -30 -8 -52 -16 -55 -7 -3 -80 -6 -163 -6
-127 -2 -150 0 -150 13 0 65 40 221 80 315 23 54 18 53 286 46z m491 -1 c8 0
11 -52 11 -185 l0 -185 -32 -1 c-17 0 -116 -1 -221 -1 l-190 0 0 43 c1 74 15
156 42 259 15 51 23 65 41 70 18 4 257 4 349 0z m474 0 c24 0 63 -150 75 -290
4 -36 8 -68 11 -72 2 -5 -6 -8 -19 -9 -25 -1 -419 -1 -429 0 -9 1 -8 354 2
366 6 8 189 11 360 5z m319 1 l86 -1 26 -67 c33 -85 56 -175 64 -247 l6 -56
-31 -1 c-114 -2 -282 -1 -286 2 -2 2 -6 29 -9 59 -9 86 -17 129 -37 218 -11
46 -17 87 -15 90 2 4 28 6 58 5 29 -1 91 -2 138 -2z m-1339 -470 c12 -1 16
-14 18 -56 1 -30 3 -62 5 -72 2 -10 7 -38 11 -63 13 -78 14 -84 29 -133 l14
-47 -144 0 -143 0 -15 28 c-19 38 -63 173 -69 213 -21 134 -21 127 4 131 19 2
224 2 290 -1z m556 -185 l3 -186 -193 2 -192 3 -27 109 c-15 60 -30 142 -33
182 l-6 73 33 3 c18 2 119 3 223 2 l190 -1 2 -187z m539 136 c1 -57 -14 -151
-41 -254 l-17 -68 -193 0 -192 0 0 188 -1 187 222 -1 221 -1 1 -51z m422 44
c17 -18 -39 -252 -82 -333 l-16 -32 -102 -3 c-57 -2 -122 -2 -145 0 -41 3 -42
4 -32 30 14 38 37 138 43 192 15 126 18 145 26 150 11 7 300 3 308 -4z m-1453
-466 l50 -1 52 -108 c29 -59 73 -136 98 -170 25 -33 45 -63 45 -66 0 -8 -109
39 -165 72 -92 54 -186 136 -258 225 l-39 47 59 3 c32 2 69 2 83 1 14 -1 48
-2 75 -3z m401 1 l91 -1 1 -194 c0 -214 0 -212 -60 -195 -25 7 -51 32 -104 99
-82 105 -183 278 -167 288 6 4 42 6 80 5 37 -1 109 -2 159 -2z m521 -4 c14
-15 -100 -206 -180 -301 -67 -81 -72 -85 -118 -88 l-34 -3 -1 197 -2 197 77 3
c113 4 251 2 258 -5z m351 -29 c-32 -46 -127 -139 -190 -186 -56 -43 -162
-102 -215 -120 l-32 -11 55 82 c30 45 76 124 101 175 l46 92 129 0 129 0 -23
-32z"/>
</g>
</svg>
